<svg version="1.1" xmlns="http://www.w3.org/2000/svg" xmlns:xlink="http://www.w3.org/1999/xlink" viewBox="0 0 195 44" fill="none" color="white">
    <path d="M77.9858 17.353C77.8137 17.4574 77.6088 17.4936 77.4113 17.4547C77.2139 17.4158 77.0381 17.3044 76.9185 17.1425C76.3306 16.2985 75.5417 15.6143 74.6231 15.1515C73.7046 14.6887 72.6852 14.462 71.6571 14.4918C67.6484 14.4918 65.188 17.6636 65.188 22.1935C65.188 26.7233 67.6935 29.9553 71.7022 29.9553C72.744 29.9802 73.775 29.7387 74.6975 29.2538C75.6199 28.7689 76.4034 28.0566 76.9736 27.1843C77.0876 27.0203 77.259 26.9051 77.4539 26.8615C77.6487 26.8179 77.8529 26.849 78.0259 26.9488L79.93 28.0512C80.034 28.1039 80.1254 28.1784 80.198 28.2696C80.2706 28.3609 80.3227 28.4667 80.3507 28.5798C80.3788 28.693 80.3821 28.8109 80.3606 28.9254C80.339 29.04 80.293 29.1486 80.2257 29.2438C79.2948 30.639 78.0248 31.7751 76.5349 32.5455C75.045 33.3159 73.3838 33.6953 71.7072 33.6483C65.2983 33.6483 60.9539 28.9982 60.9539 22.2185C60.9539 15.4388 65.2983 10.8489 71.612 10.8489C73.2607 10.8031 74.8955 11.1619 76.3735 11.8939C77.8514 12.6259 79.1276 13.7088 80.0904 15.048C80.1565 15.1382 80.2035 15.241 80.2283 15.3501C80.2531 15.4591 80.2552 15.5721 80.2345 15.6821C80.2139 15.792 80.1708 15.8965 80.1081 15.9892C80.0454 16.0818 79.9643 16.1605 79.8699 16.2205L77.9858 17.353Z" fill="currentColor"></path>
    <path d="M91.996 32.4194V31.4974C90.9938 32.7902 89.5958 33.5919 87.3459 33.5919C84.0187 33.5919 81.7087 31.773 81.7087 28.581C81.7087 24.6074 85.2514 23.9259 87.4361 23.6203C89.7812 23.2795 91.7805 23.1192 91.7805 21.5859C91.7805 20.2279 90.2121 19.8621 88.8843 19.8621C87.36 19.8875 85.8625 20.2666 84.5098 20.9695C84.4159 21.0211 84.3125 21.0531 84.2059 21.0636C84.0993 21.0741 83.9917 21.0628 83.8896 21.0305C83.7874 20.9982 83.693 20.9455 83.6118 20.8755C83.5306 20.8056 83.4645 20.72 83.4174 20.6238L82.7309 19.1907C82.6391 19.005 82.6223 18.7912 82.6839 18.5934C82.7454 18.3956 82.8807 18.2291 83.0616 18.1284C84.9562 17.1198 87.0687 16.5899 89.215 16.585C93.0333 16.585 95.7291 18.1534 95.7291 21.9467V32.4194C95.7291 32.632 95.6446 32.8359 95.4943 32.9863C95.3439 33.1366 95.14 33.2211 94.9274 33.2211H92.8328C92.7246 33.2258 92.6166 33.2086 92.5152 33.1704C92.4139 33.1323 92.3213 33.074 92.2431 32.9991C92.1649 32.9241 92.1027 32.8341 92.0602 32.7345C92.0178 32.6349 91.9959 32.5277 91.996 32.4194V32.4194ZM91.7805 25.1787C91.0439 25.7349 89.686 25.9203 88.2379 26.1808C86.7897 26.4414 85.5871 26.8272 85.5871 28.4007C85.5871 29.8488 86.6344 30.5253 88.1477 30.5253C90.0267 30.5253 91.7805 29.478 91.7805 27.0427V25.1787Z" fill="currentColor"></path>
    <path d="M99.1716 29.0738C99.3067 28.9164 99.4976 28.8175 99.7041 28.7979C99.9106 28.7783 100.117 28.8395 100.279 28.9686C101.619 29.9803 103.261 30.51 104.939 30.4718C106.668 30.4718 107.946 29.9156 107.946 28.5627C107.946 27.33 106.773 27.0845 103.937 26.5884C100.93 26.0873 98.0542 25.0852 98.0542 21.6577C98.0542 18.085 101.136 16.5767 104.648 16.5767C106.851 16.5441 109.002 17.2497 110.757 18.581C110.842 18.6481 110.913 18.7319 110.966 18.8274C111.018 18.9228 111.05 19.0278 111.06 19.1361C111.071 19.2444 111.059 19.3537 111.026 19.4572C110.992 19.5608 110.938 19.6565 110.867 19.7386L109.865 20.9161C109.732 21.074 109.544 21.175 109.339 21.1983C109.134 21.2216 108.927 21.1655 108.762 21.0414C107.528 20.1382 106.033 19.66 104.503 19.6784C103.025 19.6784 101.732 20.1094 101.732 21.2769C101.732 22.5747 103.546 22.8202 105.365 23.1309C109.248 23.8074 111.714 24.9148 111.714 28.1418C111.714 31.5291 109.003 33.6237 104.699 33.6237C102.346 33.6956 100.042 32.9441 98.1845 31.4991C98.1011 31.4308 98.0322 31.3467 97.9817 31.2515C97.9313 31.1564 97.9002 31.0521 97.8904 30.9449C97.8806 30.8376 97.8923 30.7295 97.9247 30.6267C97.9571 30.524 98.0096 30.4288 98.0792 30.3466L99.1716 29.0738Z" fill="currentColor"></path>
    <path d="M114.094 32.4211V12.0269C114.094 11.8142 114.179 11.6103 114.329 11.4599C114.48 11.3096 114.683 11.2251 114.896 11.2251H117.206C117.419 11.2251 117.623 11.3096 117.773 11.4599C117.923 11.6103 118.008 11.8142 118.008 12.0269V18.992C118.583 18.2245 119.333 17.6057 120.196 17.1873C121.059 16.7689 122.01 16.563 122.969 16.5868C126.386 16.5868 128.39 19.022 128.39 22.4996V32.4211C128.39 32.6337 128.306 32.8377 128.156 32.988C128.005 33.1384 127.801 33.2228 127.589 33.2228H125.279C125.066 33.2228 124.862 33.1384 124.712 32.988C124.561 32.8377 124.477 32.6337 124.477 32.4211V23.4015C124.477 21.6728 123.921 20.1044 121.706 20.1044C119.606 20.1044 118.008 21.5826 118.008 24.0479V32.4261C118.008 32.6387 117.923 32.8427 117.773 32.993C117.623 33.1434 117.419 33.2278 117.206 33.2278H114.896C114.79 33.2285 114.685 33.2081 114.587 33.1677C114.489 33.1273 114.401 33.0679 114.326 32.9927C114.251 32.9176 114.192 32.8284 114.153 32.7302C114.113 32.6321 114.093 32.527 114.094 32.4211V32.4211Z" fill="currentColor"></path>
    <path d="M153.81 32.6842L152.147 27.7736H143.738L142.07 32.6842C142.016 32.8423 141.914 32.9796 141.779 33.0767C141.643 33.1738 141.48 33.2258 141.313 33.2254H138.602C138.473 33.2252 138.346 33.1939 138.232 33.1342C138.118 33.0745 138.02 32.9881 137.946 32.8824C137.872 32.7767 137.825 32.6547 137.808 32.5269C137.792 32.3991 137.806 32.2691 137.851 32.1481L145.422 11.7488C145.482 11.5994 145.586 11.4717 145.72 11.3823C145.855 11.2929 146.012 11.246 146.174 11.2477H149.877C150.041 11.2484 150.202 11.299 150.337 11.393C150.472 11.487 150.575 11.6198 150.633 11.7739L158.175 32.1681C158.219 32.2896 158.233 32.42 158.217 32.5482C158.2 32.6764 158.152 32.7987 158.078 32.9045C158.003 33.0103 157.905 33.0966 157.79 33.156C157.675 33.2154 157.547 33.246 157.418 33.2454H154.557C154.389 33.2416 154.227 33.1854 154.093 33.0848C153.959 32.9841 153.86 32.844 153.81 32.6842ZM147.987 14.8004L144.75 24.3511H151.099L147.987 14.8004Z" fill="currentColor"></path>
    <path d="M163.982 17.7586V19.0214C164.552 18.2333 165.307 17.5985 166.182 17.1735C167.056 16.7486 168.022 16.5468 168.993 16.5861C173.428 16.5861 176.294 20.254 176.294 25.0595C176.294 29.8649 173.428 33.5779 168.993 33.5779C168.019 33.6148 167.051 33.4087 166.176 32.9784C165.302 32.548 164.548 31.9068 163.982 31.1126V37.762C163.982 37.9746 163.898 38.1786 163.748 38.3289C163.597 38.4793 163.393 38.5638 163.181 38.5638H160.871C160.658 38.5638 160.454 38.4793 160.304 38.3289C160.153 38.1786 160.069 37.9746 160.069 37.762V17.7185C160.069 17.5059 160.153 17.302 160.304 17.1516C160.454 17.0013 160.658 16.9168 160.871 16.9168H163.181C163.289 16.9167 163.397 16.9387 163.497 16.9814C163.597 17.0242 163.687 17.0869 163.762 17.1656C163.837 17.2444 163.895 17.3375 163.933 17.4395C163.971 17.5414 163.988 17.65 163.982 17.7586ZM168.172 30.1756C170.882 30.1756 172.18 27.8605 172.18 25.0595C172.18 22.2584 170.857 20.0035 168.172 20.0035C165.486 20.0035 163.982 22.2534 163.982 25.0595C163.982 27.8655 165.411 30.1756 168.172 30.1756Z" fill="currentColor"></path>
    <path d="M182.623 17.7584V19.0212C183.193 18.2338 183.949 17.5994 184.823 17.1745C185.697 16.7497 186.663 16.5475 187.634 16.5859C192.074 16.5859 194.94 20.2538 194.94 25.0592C194.94 29.8647 192.074 33.5777 187.634 33.5777C186.66 33.6137 185.692 33.4072 184.818 32.9769C183.943 32.5467 183.189 31.906 182.623 31.1124V37.7618C182.623 37.9744 182.539 38.1784 182.388 38.3287C182.238 38.4791 182.034 38.5635 181.822 38.5635H179.512C179.299 38.5635 179.095 38.4791 178.945 38.3287C178.794 38.1784 178.71 37.9744 178.71 37.7618V17.7183C178.71 17.5057 178.794 17.3018 178.945 17.1514C179.095 17.0011 179.299 16.9166 179.512 16.9166H181.822C181.931 16.9157 182.038 16.9372 182.139 16.9798C182.239 17.0223 182.33 17.0849 182.405 17.1638C182.48 17.2427 182.538 17.3362 182.576 17.4385C182.613 17.5407 182.629 17.6496 182.623 17.7584V17.7584ZM186.817 30.1753C189.528 30.1753 190.826 27.8603 190.826 25.0592C190.826 22.2582 189.503 20.0033 186.817 20.0033C184.132 20.0033 182.623 22.2532 182.623 25.0592C182.623 27.8653 184.071 30.1753 186.817 30.1753Z" fill="currentColor"></path>
    <path fill-rule="evenodd" clip-rule="evenodd" d="M10.5341 0.762695C5.06793 0.762695 0.636719 5.19391 0.636719 10.6601V33.8055C0.636719 39.2717 5.06792 43.7029 10.5341 43.7029H33.4495C38.9157 43.7029 43.3469 39.2717 43.3469 33.8055V10.6601C43.3469 5.1939 38.9157 0.762695 33.4495 0.762695H10.5341ZM28.9311 16.7337C27.3008 15.3539 25.235 14.5953 23.0992 14.592C21.3395 14.592 19.5799 15.1752 19.5799 16.794C19.5799 18.2698 21.1466 18.8473 23.0766 19.5587C23.2637 19.6276 23.4543 19.6979 23.6472 19.7703C27.4631 21.0574 30.6053 22.636 30.6053 26.3765C30.6053 30.4388 27.453 33.214 22.2947 33.5307L21.8272 35.7077C21.7392 36.1143 21.3785 36.4037 20.9624 36.4015H17.7197C17.4544 36.395 17.2057 36.2712 17.0406 36.0635C16.8756 35.8557 16.8113 35.5854 16.865 35.3256L17.3678 33.028C15.4207 32.5315 13.6308 31.5509 12.1642 30.1774C11.9943 30.0134 11.8984 29.7875 11.8984 29.5514C11.8984 29.3153 11.9943 29.0894 12.1642 28.9255L13.9641 27.1659C14.3045 26.8311 14.8504 26.8311 15.1908 27.1659C16.8396 28.7389 19.0409 29.6003 21.3194 29.564C23.6673 29.564 25.261 28.5685 25.261 26.9899C25.261 25.5627 23.9543 25.0847 21.4745 24.1777C21.2114 24.0814 20.9351 23.9804 20.6457 23.8728C17.4582 22.7366 14.4417 21.1127 14.4417 17.337C14.4417 12.9681 18.0917 10.8364 22.3953 10.6252L22.8478 8.40808C22.9374 8.00529 23.2949 7.71889 23.7075 7.7193H26.9402C27.2036 7.71846 27.4533 7.83631 27.6201 8.04014C27.7868 8.24397 27.8529 8.51208 27.7999 8.77006L27.2972 11.2486C28.9429 11.7866 30.4679 12.6405 31.7868 13.7624C31.9686 13.9187 32.0768 14.1439 32.0854 14.3835C32.094 14.6231 32.0021 14.8554 31.832 15.0243L30.1528 16.7086C29.8166 17.0394 29.2806 17.0504 28.9311 16.7337Z" fill="currentColor"></path>
</svg>