<?xml version="1.0"?>
<!-- Copyright: CC0  -->
<svg xmlns="http://www.w3.org/2000/svg" version="1.1" width="1024px" height="1024px">
<g><g transform="matrix(-1 0 0 1 1024 0)">
<path fill="#75eaf9" d="
M       789     217
L       739     281
c       106     83      160     217     139     350
c       -32     202     -222    340     -423    308
c       -202    -32     -340    -222    -308    -423
c       15      -98     68      -184    148     -242
c       70      -51     153     -75     238     -70
L       532     204
l       -70     73
l       52      49
l       159     -167
L       673     159
l       -167    -159
l       -49     52
l       75      71
L       532     123
c       -102    -5      -202    25      -286    86
c       -97     71      -161    175     -180    294
c       -39     245     130     477     375     515
c       24      4       47      6       70      6
c       218     0       410     -159    445     -381
c       26      -162    -39     -325    -169    -426
Z               
"/>
</g></g>
</svg>
