<svg xmlns="http://www.w3.org/2000/svg" viewBox="0 0 405 410.62">
 <defs>
  <clipPath id="a" clipPathUnits="userSpaceOnUse">
   <path d="m0 5952.8v-5952.8h8418.9v5952.8h-8418.9z"/>
  </clipPath>
 </defs>
 <g transform="translate(-45.123 -296.04)">
  <g transform="matrix(.23169 0 0 -.23372 -280.79 1099.9)">
   <g clip-path="url(#a)">
    <g transform="translate(-350.1 -350.1)">
     <path d="m3504.8 2908.4c0-483.58-391.32-875.6-874.02-875.6-482.71 0-874 392.02-874 875.6 0 483.61 391.29 875.63 874 875.63 482.7 0 874.02-392.02 874.02-875.63" fill-rule="evenodd" fill="#e9e9e9"/>
     <path d="m3482.1 2908.4c0-471-381.13-852.83-851.29-852.83s-851.27 381.83-851.27 852.83c0 471.02 381.11 852.85 851.27 852.85s851.29-381.83 851.29-852.85" fill-rule="evenodd" fill="#403c3d"/>
     <g>
      <path d="m3473.3 3030c-6.42 7.53-13.81 14.41-22.76 20.33 3.77-16.2 15.99-35.21 27.12-54.62-1.18 11.52-2.73 22.91-4.36 34.29zm-403.1-746c-63.63-5.85-49.36-41.32 30.29-33.77 29.21 2.77 76.64 33.01 121.13 44.56 22.41 21.66 43.74 44.44 63.68 68.43-27-14.62-77.9-37.33-127.3-60.84-28.31-13.46-63.77-16.17-87.8-18.38zm409 691.11c-9.21 11.12-16.63 28.08-26.56 40.46-2.32 4.07-10.61 18.92-19.05 37.24-.7 1.84-1.35 3.66-2.39 5.51l-.05-.07c-2.45 5.45-4.83 11.12-7.04 16.85l-.01.06c-1.76 4.55-3.39 9.12-4.84 13.64-7.01 21.99-27.18 60.03-55.62 91.97-.17 1.83-.23 3.57.33 4.78l-4.7-.11c-16.1 17.22-34.56 32.28-54.71 41.42-58.53 26.53-110.11 53.23-110.11 53.23-1.79-15.12 12.75-34.44 21.07-51.41 1.85-6.68 3.04-13.01 3.15-18.42l-.53.48c-.79-1.72-.36-4.51-.09-7.16-.63-2.86-1.75-5.25-3.64-6.83-9.8 30.98-27.24 55.39-36.22 83.01-9.63 29.6-17.24 58.12-39.62 80.27-27.97 27.69-80.34 42.83-120.05 60.13-15.2 9.33-29.15 18.25-39.73 25.48l.27.4c-42.2 33.83-99.59 85.95-160.2 43.76-36.58-25.48-72.09-74.05-114.92-94.66-4.7-2.29-10.18-4.72-16.01-6.75l-.25-.29-1.82-.38c-4.22-1.37-8.56-2.48-12.88-3.09-11.15-3.02-19.94-6.36-27.56-9.36-.89-1.67-2.36-1.72-2.72-1.08-14.7-5.76-25.44-9.82-42.09-6.82-10.16 1.82-36.31-.01-47.19-1.01 0 0-69.05-.05 15.93 9.37-3.27 2.46-6.36 4.92-9.21 7.4-45.43-3.61-85.18 12.35-130.49 5.85 5.09-8.21 21.77-6.21 25.04-16.05-34.67-11.48-53.95 37.68-88.39 17.4 5.15-9.48.58-21.45-6.91-27.78 2.9 29.09-36.96 53.69-62.56 31.76 9.7-10.86 10.2-28.86 4.46-43.12l-17.4-19.5c-4.08-1.69-8.59-2.37-13.51-1.4 16.74 7.37 29.01 20.73 29.06 36.46.09 27.81-34.12 35.28-62.43 34.49-56.18-1.59-100.39-26.71-133.84-59.13l.24.95-19.4-20.96s-60.6-25.35-82.33-93.09c.7 8.35 1.64 17.81 2.85 27.9 9.79 28.43 25.25 49.66 49.44 66.79-28.7-3.61-69.69-15.54-82.38-53.55-5.96-17.81-12.11-31.1-16.94-60.9l-.29.34s-11.55-58.65-4.07-92.05c6.5-29.06 15.74-58.97 19.98-78.46.31-2.57.8-5.25 1.55-8.02 53.53 25.5 127.71 32.14 197.84 42.47-29.28-4.79-70.93-16.14-111.03-25.84-40.01-9.7-98.01-24.8-98.91-60.92-.53-21.23 15.39-39.9 42.38-40.6-2.4 5.18-2.21 12.74-2.01 20.32-5.57-.46-4.61-6.86-8.07-9.23-2.07 41.18 68.63 45.39 115.05 53.52 6.31 1.1 12.28 2.63 18.18 3.7 21.63 3.79 53.78 1.97 88.43 1.46 47.63-.67 81.2 5.28 125.04-11.15 14.08-5.29 43.74-7.09 58.03-8.62 50.68-5.38 88.38 3.26 150.38-2.01 24.7-2.09 49.47-11.64 72.68-22.15 32.18-14.54 57.5-32.58 96.88-22.16 14.24-.73 28.56 1.95 33.28-.73 22.77-2.03 19.21-19.81 45.45-17.71 30.54 2.43 54.62 21.61 90.84 24.01 28.24 1.84 57.99-5.19 90.84-1.86 22.77 2.31 45.33 12.35 64.59 20.29 48.59 20.07 128.49 59.45 135.25 112.57 5.48 43.01-26.95 65.35-72.67 53.55 46.44 24.15 89.27-11.93 88.81-57.23-.13-13.82-9.81-26.35-16.14-42.45-6.37-16.16-6.51-27.48-14.14-36.9-3.81-4.74-8.73-8.7-13.9-11.99-8.91-4.41-21.76-8.11-39.39-12.95-26.03-7.17-50.53-14.82-50.53-14.82-4-.78-5.56-1.56-5.83-2.26-16.03-4.39-35.35-10.88-46.46-18.98-21.4-15.61-55.77-27.94-88.83-22.1-3.06.55-5.56.66-7.59.44-10.86 1.42-21.56 2.92-32.09 3.3 0 0-60.14-1.51-56.74-3.53 3.41-2.07 4.26-2.02 4.26-2.02 22.01-17.39 32.52-46.38 44.41-73.8 13.37-30.85 23.4-62.63 26.25-103.36 8.55 33.04 20.19 63.26 35.25 90.38 19.61 32.19 58.62 82.91 118.6 102.69 21.12 6.63 38.61 16.58 52.03 30.26-18.49-27.47-50.41-39.13-76.7-57.24-54.55-37.54-83.75-92.88-109-162.4-5.76-15.84-11.5-31.64-20.18-46.15-8.38-13.93-21.17-26.48-26.25-40.58-3.28-9.09-1.97-19.3-4.03-27.7-5.7-23.21-15.54-46.26-29.19-64.5-11.59-13.02-35.57-39.82-40.13-43.98l-.22-.36c-31.85-30.92-69.62-56.39-110.13-79.41l.39-.82-2.18-1.47-.22.45c-5.62-3.61-10.68-7.72-15.38-12.15-4.84-4.03-8.91-8.05-10.85-11.33-16.68-19.34-29.5-42.11-48.46-59.56-10.87-10.02-23.71-18.07-36.43-26.37l.09.31s-15.25-10.33-28.3-18.19c-40.26-19.09-81.84-52.85-143.27-53.58-32.98-.36-78.22 2.15-92.87 27.71 0 0-8.68 4.13-8.07-14.77.78-24.11 41.07-24.82 61.99-34.85 10.59-6.14-10.26-1.04-17.57-2.08 16.08-17.27 25.62-40.53 60.55-40.57 0 0-8.15 7.62-10.95 9.16-2.81 1.52 1.78 3.83 14.29-.78 10.26-3.78 23.65-7.19 41.17-7.09 1.13 0 2.23-.02 3.41 0 2.76.08 5.63.26 8.61.54 0 0 31.03.17 60.97 13.12 29.96 12.96 63.98 9.55 79.64 21.14 15.66 11.58 27.23 34.07 37.43 37.5 10.22 3.42 24.55 11.33 36.24 24.55 9.96 11.24 25.12 4.89 37.52 16.37 11.29 10.44 86.52 47.81 86.52 47.81 22.36 15.41 36.07 33.48 61.35 46.2 36.66 25.62-50.85-18.01-76.31-27.89-31.65-12.26-3.07 4.31-3.07 4.31l51.26 29.33c15.44 7.57 30.91 15.07 46.7 22.26 10.21 4.35 27.69 11.65 41.34 16.53 26.89 6.81 50.65 4.82 73.31 8.99 24.06 4.41 45.17 16.05 68.63 20.3 3.73.66 10.05-1.26 14.14 0 25.47 7.85 50.95 32.67 74.69 46.13 54.76 31.04 95.31 60.15 111.03 127.36 3.69 15.78 5.91 31.75 10.09 47.96 8.91 34.68 15.52 66.46 12.1 112.58-2.02 27.41-17.84 55.88-16.14 90.44 1.6 32.49 24.4 57.21 34.31 86.74 11.84 35.26-9.8 59.99-42 73.32l.02.03s-23.83 11.25-33.01 11.93c-9.19.69 4.77 3.06 10.89 3.06 4.7 0 8.77 3.24 11.96 8.26 3.64 5.15 5.68 12.38 9.75 17.83 5.72 7.65 19.89 18.14 20.19 25.82.39 10.04-16.8 23.84-26.25 29.55-16.3 9.86-42.61 15.88-64.59 25.84-24.47 11.05-42.11 23.26-54.5 35.05-6.87 17.68-19.82 28.7-18.17 49.84.41 5.36 2.38 10.54 4.14 15.93l.74 1.99c2.04 6.89 4.85 17.63 0 29.9-4.84 12.28-22.46 15.85-22.46 15.85l-.07-.01c-9.55 3.18-20.88 5.11-28.78 8.33-12.47 5.03-22.27 11.8-32.01 16.88 12.11-3.84 26.84-10.03 49.63-12.08 10.06-.89 38.28-5.95 43.6-23.9l.56-2.02.47-1.79c.23-1.02.4-2.05.56-3.09.18-1.35.38-2.66.41-4.12l.09-2.09c.1-7.16-1.4-14.68-4.77-22.16-12.95-28.75 1.23-50.51 22.34-61.76 19.97-15.69 49.52-24.31 78.59-35.23 23.22-8.71 49.09-21.54 62.26-36.33 6.84-11.84 10.51-24.87 6.01-37.26-7.2-13.97-24.49-20.05-29.91-37.14 6.8-8.64 19.17-10.55 28.26-16.59 14.11-9.41 24.5-22.04 27.69-40.18l.18-1.91c.34-2.16.53-4.32.63-6.51.03-1.96-.05-3.92-.08-5.88-1.68-32.34-26.5-65.77-33.73-81.2-8.16-17.37-5.61-35.28-5.61-35.28 1.81-7 3.64-12.54 5.48-16.85 3.27-9.56 7.03-22.96 9.88-38.76 10.13-22.39 21.09-48.44 25.98-66.09 10.22-36.81 24.51-102.3 4.09-247.53-20.41-145.21-215.75-151.34-274.96-175.91-40.77-16.9 4.76-30.67 82.01-16.35 34.95 6.5 80.11 35.32 122.51 43.97 17.97 3.67 29.54 5.36 36.09 5.44 114.98 145.4 183.81 329.08 183.81 528.99 0 22.48-1.13 44.67-2.83 66.7" fill="#adda1a"/>
      <path d="m2527.2 3484.5c28.26 41.24 27.7 71.63 24.53 103.17-.63 1.96.68 1.9 2.29 3.34 55.47-11.28 59.88-65.49 36.07-106.35-11.3-19.34-22.34-29.53-39.67-24.13-14.35 4.48-16.31 16.03-23.22 23.97zm-22.94 26.32c-23.48 6.74-30.28 33.38-39.75 44.39 25.59 27.33 24.12 51.34 23.12 73.26-.25 5.04-1.16 10.64.87 15.61 4.78-.4 13.16-1.62 20.01-5.26 31.15-16.48 44.04-75.44 25.93-110.1-7.77-14.86-15.64-22.08-30.18-17.9zm-49.53 55.34c-21.15 10.63-33.04 24.8-38.55 40.89-3.24 9.42-5.73 10.56-3.54 22.26 4.71 25.26 6.29 53.13-.01 73.19l1.52.74c61.04-21.54 96.06-62.27 40.58-137.08zm160.36-21.48c.43 1.12 1.42.94 2.43.7 19.43-8.58 39.87-22.99 49.81-38.59 18.89-29.6 24.49-74.11 8.75-109.89-6.99-1.61-11.49-3.22-17.12-5.22-.96-.25-1.96-.53-2.93-.88l-5.24-1.92-.53-.22-.83-.27.06-.02c-2.29-1-3.88-1.76-3.88-1.76-7.42-3.8-15.21-6.06-22.62-7.34-45.89 9.86-59.74 62.26-59.74 62.26 42.87 18.87 67.1 73.24 51.84 103.15zm88.05-72.17c16.89-8.8 28.17-20.87 34.68-34.6-2.09-1.82-4.23-3.69-6.42-5.58-2.89 5.4-6.88 10.28-12.13 14.42 2.37-6.9 3.73-13.96 4.23-21.22-3.14-2.68-6.23-5.31-9.09-7.73-2.63-5.05-10.69-11.72-20.99-16.09 8.17 24.85 9.15 51.24 9.72 70.8zm-311.91 160.11c-8.77 5.76-15.6 12.68-20.53 20.31-3.9 6.06-9.38 15.98-8.2 24.13.81 5.61 5.25 13.13 7.51 19.41 6.49 18.02 9.03 34.28 3.94 47.21 37.11-16.36 42.93-57.47 17.28-111.06zm-71.06 107.31c4.27 4.64 7.57 6.94 10.26 11.67 4.42 7.78.01 11.73 2.36 16.45 39.87-5.15 43.3-33.2 26.09-72.98-26.57 9-33.65 26.79-38.71 44.86zm-16.21 42.78c13.88-3.86 29.39-11.76 14.6-35.37-9.08 9.72-12.16 22.55-14.6 35.37" fill="#f4f4f4"/>
      <path d="m2529 2752.4c-23.94 4.97-43.72-1.93-64.59-5.52-13.88-2.35-33.24-7.99-41.67.71-3.55 4.21-.72 8.52-.72 8.52 7.97 19.73 31.16 31.35 50.46 36.91 60.55 17.46 119.21-14.63 177.64-18.45 75.3-4.94 129.29 21.21 167.54 47.98 10.06 7.04 23.37 24.16 40.39 12.92-7.25-15.06-26.47-24.97-42.4-33.22-27.89-14.43-52.63-27.06-84.78-35.07 54.18 8.3 92.69 30.91 133.23 51.69 4.96-10.44 10.54-31.37 14.21-49.1l.51.06s3.69-9.93 2.6-19.63c.14-4.63-.79-8.61-4.09-10.8-1.11-1.42-2.45-2.74-4.12-3.84-14.8-9.71-58.71-31.2-93.93-33.75-1.16-.06-2.28-.21-3.43-.33l-2.59-.73-.08.49c-31.94-3.71-52.6-16.9-11.76-10.17 40.88 6.75 128.41 21.66 96.52 9.67l.11.01c-39.82-15.58-92.06-30.84-143.33-25.84-33.14 3.22-67.42 19.51-96.89 35.07-29.44 15.53-57.36 35.95-88.83 42.42" fill="#f6836c"/>
      <path d="m2326.2 2354.7c4.08 2.22 4.97-7.19 8.29-18.98 3.33-11.89 19.84-36.31 19.84-36.31 2.35-5.03-6.67-9.99-13.52-12.26-6.76-2.27-6.76 1.09-6.76 1.09s-12.23 17.5-14.12 33.81c-1.92 16.13 2.23 30.52 6.27 32.65zm40.64 1.81c4.69 2.53 5.68-8.19 9.45-21.63 3.78-13.49 22.67-41.28 22.67-41.28 2.68-5.7-7.73-11.3-15.59-13.92-7.76-2.56-7.75 1.26-7.75 1.26s-13.98 19.89-16.1 38.44c-2.15 18.35 2.67 34.69 7.32 37.13zm40.42 22c6 3.2 7.23-10.4 12-27.41 4.77-17.13 28.86-52.33 28.86-52.33 3.41-7.23-9.95-14.37-20.01-17.65-9.95-3.25-9.92 1.56-9.92 1.56s-17.78 25.2-20.43 48.68c-2.68 23.23 3.53 44 9.5 47.15zm57.45 25.09c6.09 3.05 6.97-10.1 11.18-26.55 4.31-16.64 27.29-50.85 27.29-50.85 3.2-6.99-10.33-13.79-20.48-16.91-10.02-3.04-9.92 1.62-9.92 1.62s-16.98 24.48-18.95 47.17c-1.98 22.49 4.86 42.54 10.88 45.52zm44.26 31.78c6.07 3.98 8.64-9.21 15.17-25.27 6.58-16.12 35.51-47.78 35.51-47.78 4.33-6.72-9.26-15.58-19.72-20.26-10.3-4.57-10.76.29-10.76.29s-21.15 22.63-26.1 45.45c-4.9 22.54-.14 43.66 5.9 47.57zm48.77 40.94c5.41 4.47 9.46-7.11 17.8-20.77 8.45-13.93 40.63-38.61 40.63-38.61 5.1-5.54-6.94-15.85-16.57-21.68-9.51-5.74-10.49-1.34-10.49-1.34s-23.53 17.77-31.17 37.94c-7.55 19.98-5.51 40.01-.2 44.46zm185.39 120.94c4.18 3.75 8.57-4.11 16.71-13.01 8.21-9.05 37.03-23.24 37.03-23.24 4.66-3.43-4.6-12.04-12.11-17.22-7.5-5.19-8.69-2.14-8.69-2.14s-21.23 10.05-29.26 23.76c-7.99 13.54-7.86 28.06-3.68 31.85zm-83.83-151.23c-9.45-6.38-10.83-2.22-10.83-2.22s-25.47 15.59-34.69 34.81c-9.02 18.94-8.25 38.54-3.03 43.27 5.27 4.75 10.24-6.17 19.76-18.9 9.66-12.94 44.48-34.59 44.48-34.59 5.58-5.02-6.2-15.95-15.69-22.37zm15.48 114.75c5.12 4.8 10.6-5.38 20.83-16.95 10.35-11.84 46.67-30.68 46.67-30.68 5.91-4.46-5.65-15.61-15.02-22.3-9.37-6.71-10.94-2.75-10.94-2.75s-26.56 13.47-36.67 31.33c-10.02 17.62-10.04 36.54-4.87 41.35zm101.12 357.36s5.89-.99 3.23-9.33c-2.65-8.32-3.16-34.13 4.89-45.23 8.1-11.15-5.54-6.92-16.19 4.34-10.67 11.21-18.21 31.85-15.91 45.89 0 0-.61 5.9 23.98 4.33zm-37.63-68.3c12.91-14.43-6.86-10.58-23.41 3.64-16.55 14.19-30.1 41.88-28.85 61.86 0 0-1.69 8.18 33.05 9.59 0 0 8.44-.55 5.83-12.61-2.48-12.03.45-48.16 13.38-62.48zm-71.11-9.21c12.65-18.42-9.32-11.03-26.12 7.75-16.81 18.79-28.16 52.61-23.84 75.41 0 0-.74 9.57 39.08 5.91 0 0 9.54-1.9 4.91-15.26-4.74-13.49-6.65-55.37 5.97-73.81zm-108.01 18.58c-16.99 21.48-27.18 59.39-21 84.23 0 0-.14 10.67 42.87 4.7 0 0 10.17-2.58 4.24-17.17-5.94-14.56-10.76-60.64 1.73-81.59 12.48-20.92-10.85-11.75-27.84 9.83zm-83.19 11.35c-17.28 21.7-27.77 60.21-21.65 85.66 0 0-.23 10.79 43.27 5.3 0 0 10.31-2.5 4.38-17.43-5.91-14.92-10.54-62 2.15-83.15 12.76-21.18-10.88-12.13-28.15 9.62zm-80.49-21.24c-20.89 28.13-34.89 78.07-29.36 111.18 0 0-.81 14.15 48.98 7.34 0 0 11.95-3.12 6.04-22.7-5.94-19.46-8.65-80.67 7.02-108.11 15.66-27.4-11.77-15.8-32.68 12.29zm-80.64 17.63c-20.8 24.29-34.51 68.64-28.73 98.66 0 0-.78 12.7 49.2 8.87 0 0 11.96-2.3 5.84-20.09-6.04-17.77-9.17-73 6.38-96.98 15.61-23.92-11.86-14.78-32.69 9.54zm-78.28 28.17c-15.16 21.15-23.52 58.34-17.11 82.67 0 0 .15 10.43 39.86 4.32 0 0 9.42-2.59 3.47-16.79-5.9-14.27-11.67-59.43-.66-80.02 11.02-20.57-10.39-11.43-25.56 9.82zm-61.99 15.5c-13.96 16.84-22.79 46.55-18.34 66.13 0 0-.35 8.36 33.98 3.94 0 0 8.25-1.95 3.73-13.46-4.34-11.46-7.34-47.75 3.05-64.16 10.34-16.4-8.43-9.27-22.42 7.55zm-72.12-11.61c-16.8 18.79-28.15 52.6-23.84 75.42 0 0-.74 9.55 39.08 5.91 0 0 9.55-1.9 4.91-15.28-4.74-13.48-6.65-55.36 5.98-73.82 12.64-18.41-9.33-11.03-26.13 7.77zm-52.45.72c-16.56 14.2-30.11 41.9-28.86 61.87 0 0-1.69 8.18 33.03 9.58 0 0 8.46-.53 5.86-12.6-2.5-12.04.43-48.17 13.36-62.48 12.91-14.42-6.86-10.6-23.39 3.63" fill="#f4f4f4"/>
      <path d="m2806.9 3351.7c12.87 7 28.05 52.37 59.22 33.53 23.17-14 34.21-17.55 34.21-17.55s-16.18-4.55-23.54-16.71c-7.37-12.16-16.19-21.52-41.94-17.7-27.04 4.02-31.99-.22-45.6-2.44 0 0 4.76 13.86 17.65 20.87" fill="#f4f4f4"/>
     </g>
     <path d="m2731.4 3432.3c-2.89 5.4-6.88 10.28-12.13 14.42 2.37-6.9 3.73-13.96 4.23-21.22-3.14-2.68-6.23-5.31-9.09-7.73-2.63-5.05-10.69-11.72-20.99-16.09 8.17 24.85 9.15 51.24 9.72 70.8 16.89-8.8 28.17-20.87 34.68-34.6-2.09-1.82-4.23-3.69-6.42-5.58zm-55.32-35.43c-6.99-1.61-11.49-3.22-17.12-5.22-.96-.25-1.96-.53-2.93-.88l-5.24-1.92-.53-.22-.83-.27.06-.02c-2.29-1-3.88-1.76-3.88-1.76-7.42-3.8-15.21-6.06-22.62-7.34-45.89 9.86-59.74 62.26-59.74 62.26 42.87 18.87 67.1 73.24 51.84 103.15.43 1.12 1.42.94 2.43.7 19.43-8.58 39.87-22.99 49.81-38.59 18.89-29.6 24.49-74.11 8.75-109.89zm-125.66 63.63c-14.35 4.48-16.31 16.03-23.22 23.97 28.26 41.24 27.7 71.63 24.53 103.17-.63 1.96.68 1.9 2.29 3.34 55.47-11.28 59.88-65.49 36.07-106.35-11.3-19.34-22.34-29.53-39.67-24.13zm-46.16 50.29c-23.48 6.74-30.28 33.38-39.75 44.39 25.59 27.33 24.12 51.34 23.12 73.26-.25 5.04-1.16 10.64.87 15.61 4.78-.4 13.16-1.62 20.01-5.26 31.15-16.48 44.04-75.44 25.93-110.1-7.77-14.86-15.64-22.08-30.18-17.9zm-49.53 55.34c-21.15 10.63-33.04 24.8-38.55 40.89-3.24 9.42-5.73 10.56-3.54 22.26 4.71 25.26 6.29 53.13-.01 73.19l1.52.74c61.04-21.54 96.06-62.27 40.58-137.08zm-400.52-594.93s8.46-.53 5.86-12.6c-2.5-12.04.43-48.17 13.36-62.48 12.91-14.42-6.86-10.6-23.39 3.63-16.56 14.2-30.11 41.9-28.86 61.87 0 0-1.69 8.18 33.03 9.58zm24.44 3.25s-.74 9.55 39.08 5.91c0 0 9.55-1.9 4.91-15.28-4.74-13.48-6.65-55.36 5.98-73.82 12.64-18.41-9.33-11.03-26.13 7.77-16.8 18.79-28.15 52.6-23.84 75.42zm77.62 2.32s-.35 8.36 33.98 3.94c0 0 8.25-1.95 3.73-13.46-4.34-11.46-7.34-47.75 3.05-64.16 10.34-16.4-8.43-9.27-22.42 7.55-13.96 16.84-22.79 46.55-18.34 66.13zm63.22 1.04s.15 10.43 39.86 4.32c0 0 9.42-2.59 3.47-16.79-5.9-14.27-11.67-59.43-.66-80.02 11.02-20.57-10.39-11.43-25.56 9.82-15.16 21.15-23.52 58.34-17.11 82.67zm66.66-12.18s-.78 12.7 49.2 8.87c0 0 11.96-2.3 5.84-20.09-6.04-17.77-9.17-73 6.38-96.98 15.61-23.92-11.86-14.78-32.69 9.54-20.8 24.29-34.51 68.64-28.73 98.66zm80.01-5.11s-.81 14.15 48.98 7.34c0 0 11.95-3.12 6.04-22.7-5.94-19.46-8.65-80.67 7.02-108.11 15.66-27.4-11.77-15.8-32.68 12.29-20.89 28.13-34.89 78.07-29.36 111.18zm88.2-4.28s-.23 10.79 43.27 5.3c0 0 10.31-2.5 4.38-17.43-5.91-14.92-10.54-62 2.15-83.15 12.76-21.18-10.88-12.13-28.15 9.62-17.28 21.7-27.77 60.21-21.65 85.66zm83.84-12.78s-.14 10.67 42.87 4.7c0 0 10.17-2.58 4.24-17.17-5.94-14.56-10.76-60.64 1.73-81.59 12.48-20.92-10.85-11.75-27.84 9.83-16.99 21.48-27.18 59.39-21 84.23zm79.05-19.65s-.74 9.57 39.08 5.91c0 0 9.54-1.9 4.91-15.26-4.74-13.49-6.65-55.37 5.97-73.81 12.65-18.42-9.32-11.03-26.12 7.75-16.81 18.79-28.16 52.61-23.84 75.41zm101.86 1.14s8.44-.55 5.83-12.61c-2.48-12.03.45-48.16 13.38-62.48 12.91-14.43-6.86-10.58-23.41 3.64-16.55 14.19-30.1 41.88-28.85 61.86 0 0-1.69 8.18 33.05 9.59zm98.58-102.42c10.06 7.04 23.37 24.16 40.39 12.92-7.25-15.06-26.47-24.97-42.4-33.22-27.89-14.43-52.63-27.06-84.78-35.07 54.18 8.3 92.69 30.91 133.23 51.69 4.96-10.44 10.54-31.37 14.21-49.1l.51.06s3.69-9.93 2.6-19.63c.14-4.63-.79-8.61-4.09-10.8-1.11-1.42-2.45-2.74-4.12-3.84-14.8-9.71-58.71-31.2-93.93-33.75-1.16-.06-2.28-.21-3.43-.33l-2.59-.73-.08.49c-31.94-3.71-52.6-16.9-11.76-10.17 40.88 6.75 128.41 21.66 96.52 9.67l.11.01c-39.82-15.58-92.06-30.84-143.33-25.84-33.14 3.22-67.42 19.51-96.89 35.07-29.44 15.53-57.36 35.95-88.83 42.42-23.94 4.97-43.72-1.93-64.59-5.52-13.88-2.35-33.24-7.99-41.67.71-3.55 4.21-.72 8.52-.72 8.52 7.97 19.73 31.16 31.35 50.46 36.91 60.55 17.46 119.21-14.63 177.64-18.45 75.3-4.94 129.29 21.21 167.54 47.98zm-41.74 95.63s5.89-.99 3.23-9.33c-2.65-8.32-3.16-34.13 4.89-45.23 8.1-11.15-5.54-6.92-16.19 4.34-10.67 11.21-18.21 31.85-15.91 45.89 0 0-.61 5.9 23.98 4.33zm8.86-374.35c-7.5-5.19-8.69-2.14-8.69-2.14s-21.23 10.05-29.26 23.76c-7.99 13.54-7.86 28.06-3.68 31.85 4.18 3.75 8.57-4.11 16.71-13.01 8.21-9.05 37.03-23.24 37.03-23.24 4.66-3.43-4.6-12.04-12.11-17.22zm-57.5-52.94c-9.37-6.71-10.94-2.75-10.94-2.75s-26.56 13.47-36.67 31.33c-10.02 17.62-10.04 36.54-4.87 41.35 5.12 4.8 10.6-5.38 20.83-16.95 10.35-11.84 46.67-30.68 46.67-30.68 5.91-4.46-5.65-15.61-15.02-22.3zm-67.96-44.82c-9.45-6.38-10.83-2.22-10.83-2.22s-25.47 15.59-34.69 34.81c-9.02 18.94-8.25 38.54-3.03 43.27 5.27 4.75 10.24-6.17 19.76-18.9 9.66-12.94 44.48-34.59 44.48-34.59 5.58-5.02-6.2-15.95-15.69-22.37zm-59.7-50.77c-9.51-5.74-10.49-1.34-10.49-1.34s-23.53 17.77-31.17 37.94c-7.55 19.98-5.51 40.01-.2 44.46 5.41 4.47 9.46-7.11 17.8-20.77 8.45-13.93 40.63-38.61 40.63-38.61 5.1-5.54-6.94-15.85-16.57-21.68zm-59.67-53.19c-10.3-4.57-10.76.29-10.76.29s-21.15 22.63-26.1 45.45c-4.9 22.54-.14 43.66 5.9 47.57 6.07 3.98 8.64-9.21 15.17-25.27 6.58-16.12 35.51-47.78 35.51-47.78 4.33-6.72-9.26-15.58-19.72-20.26zm-57.23-32.78c-10.02-3.04-9.92 1.62-9.92 1.62s-16.98 24.48-18.95 47.17c-1.98 22.49 4.86 42.54 10.88 45.52 6.09 3.05 6.97-10.1 11.18-26.55 4.31-16.64 27.29-50.85 27.29-50.85 3.2-6.99-10.33-13.79-20.48-16.91zm-54.59-28.17c-9.95-3.25-9.92 1.56-9.92 1.56s-17.78 25.2-20.43 48.68c-2.68 23.23 3.53 44 9.5 47.15 6 3.2 7.23-10.4 12-27.41 4.77-17.13 28.86-52.33 28.86-52.33 3.41-7.23-9.95-14.37-20.01-17.65zm-44.74-1.44c-7.76-2.56-7.75 1.26-7.75 1.26s-13.98 19.89-16.1 38.44c-2.15 18.35 2.67 34.69 7.32 37.13 4.69 2.53 5.68-8.19 9.45-21.63 3.78-13.49 22.67-41.28 22.67-41.28 2.68-5.7-7.73-11.3-15.59-13.92zm-42.56 7.47c-6.76-2.27-6.76 1.09-6.76 1.09s-12.23 17.5-14.12 33.81c-1.92 16.13 2.23 30.52 6.27 32.65 4.08 2.22 4.97-7.19 8.29-18.98 3.33-11.89 19.84-36.31 19.84-36.31 2.35-5.03-6.67-9.99-13.52-12.26zm50.37 1345.4c-8.77 5.76-15.6 12.68-20.53 20.31-3.9 6.06-9.38 15.98-8.2 24.13.81 5.61 5.25 13.13 7.51 19.41 6.49 18.02 9.03 34.28 3.94 47.21 37.11-16.36 42.93-57.47 17.28-111.06zm-71.06 107.31c4.27 4.64 7.57 6.94 10.26 11.67 4.42 7.78.01 11.73 2.36 16.45 39.87-5.15 43.3-33.2 26.09-72.98-26.57 9-33.65 26.79-38.71 44.86zm-16.21 42.78c13.88-3.86 29.39-11.76 14.6-35.37-9.08 9.72-12.16 22.55-14.6 35.37zm1173.8-787.01c-11.13 19.41-23.35 38.42-27.12 54.62 8.95-5.92 16.34-12.8 22.76-20.33-1.34 9.41-2.92 18.74-4.57 28.06-9.71 7.73-20.63 14.52-33.49 19.89-20.69 92.5-65.21 150.91-156.67 184.3-30.66 11.19-59.7 24.15-89.94 37.34 1.75 98.46-112.47 96.39-183.64 147.07-30.95 22.1-66.05 62.87-101.46 70.41-68.48 14.6-110.62-33.23-151.06-66.63-9.93 10.85-24.8 21.45-46.38 31.1 0 0-38.6 55.15-56.6 65.52-1.19.69-2 1.32-2.52 1.93-9.94 4.68-22.41 7.31-31.21 13.14-8.7 5.73-10.35 19.28-19.05 25.84-4.26 3.2-10.87 6.67-16.65 8.99-6.98 2.81-18.94 2.29-25.97 6.14-8.65 4.75-9.34 20.2-15.61 27.87-6.91 8.47-15.8 15.4-30.18 20.24-5.83 1.94-14.63 2.07-19.9 4.9-5.88 3.18-7.32 13.15-11.87 19.26-10.58 14.26-28.45 25.31-48.83 32.52-4.39 1.55-10.28 1.55-13.49 3.71-4.03 2.7-4.19 9.73-6.94 14.64-4.25 7.58-9.92 15.28-19.06 19.99-3.91 2.04-9.92 1.85-13.75 4.03-4.5 2.58-5.71 8.88-9.5 12.57-7.66 7.48-16.76 13.16-35.67 8.31-6.7 8.69-15.55 15.67-29.96 18.64l-.44-.77c1.82-17.24 4.29-34.66 17.38-46.59-3.32-19.81 5.98-34.36 21.01-46.08 3.62-2.83 9.62-4.32 12.72-8.05 4.11-4.96 2.41-15.04 4.2-21.26 5.56-19.2 17.41-36.84 37.11-51.25 2.88-2.12 8.38-3.14 10.88-5.97 5.5-6.25 3.9-16.74 8.05-23.95 4.36-7.59 11.79-16.75 20.96-23.81 5.03-3.88 12.53-5.95 17.23-10.57 3.81-3.73 4.86-10.44 7.58-16.02 7.35-15.1 26.81-32.59 36.15-48.37 1.23-2.08 2.2-4.3 3.01-6.54 3.89-8.03 13.3-25.05 26.13-32.91 0 0 1.34-23.63 24.86-50.57-47.65 2.58-93.62 29.56-128.96 2.76-10.2 11.15-42.93 19.9-56.94 4.25-10.33 18.01-65.18 29.5-75.85 1.04-77.98 35.05-172.08-14.92-202.33-65.08-5.61-2.68-10.86-5.51-15.82-8.41-21.34 6.43-50.25 8.71-81.54-13.89-30.84-22.29-63.08-122.26-57.53-191.48.6-7.41 14.64-24.92 19.68-59.99 5.02-34.8 8.83-46.22 8.83-46.22-6.86-11.99-15.04-17.35-16.15-31.38-2.42-30.36 23.49-46.85 47.76-62.4 8.65-4.04 18.42-6.93 29.04-7.32 6.41-10.15 31.11-44.55 71.94-44.55 1.01 0 2.04.07 3.04.13 15.59-13.13 31.86-16.66 20.63-.47-.93 1.33-1.72 2.83-2.46 4.38 7.51-4.47 16.59-8.82 24.69-9.61.16-.02 3.98-.98 7.14-.98 1.14 0 4.48 0 5.66 2.57 1.18 2.6-1.2 5.38-1.99 6.28-3.27 3.77-6.95 13.59-9.72 22.76 3-5.5 6.25-10.71 9.9-15.21 19.43-23.89 46.63-35.2 31.44-11.41-4.87 7.61-7.65 17.99-9.01 29.01 7.53-9.28 20.49-20.09 41.56-24.4 17.42-16.59 39.07-23.38 26.1-5.74-3.32 4.51-5.48 10.33-6.77 16.68 10.5-12.62 28.26-28.83 50.03-28.83l1.59.03.44.02c14.94-10.11 27.45-11.8 16.27 2.79-4.84 6.36-7.48 15.16-8.67 24.45 9.87-20.16 28.91-47.92 61.69-56.83.24-.1 5.89-1.65 10.55-1.65 3.63 0 5.93.93 7.02 2.92 1.59 2.87-.5 6.19-1.19 7.28-2.11 3.41-4.08 7.64-5.78 11.82 14.71-8.64 25.59-9.38 14.13 4.7-5.91 7.26-9.06 17.5-10.36 28.08 8-21.41 24.29-51.48 56.48-71.19.23-.11 6.03-2.83 12.45-2.83 3.1 0 5.87.64 8.26 1.84 2.05 1.07 3.39 2.8 3.94 5 1.68 6.71-4.68 16.25-5.25 17.03-2.65 5.22-7.5 16.25-9.89 25.91l.24-.2c23.26-18.8 53.46-27.51 34.83-8.75-11.31 11.4-15.67 30.94-16.06 46.89 6.8-19.1 23.32-52.18 57.54-58.74.23-.02 5.53-1.04 9.45-1.04 2.17 0 4.79.24 5.71 2.34.39.88.55 2.32-1 4.06-2.56 2.89-6.19 11.58-8.12 18.61 1.62-1.24 3.2-2.56 4.89-3.65 16.6-10.91 36.19-16.61 38.75-13.08 5.3-4.36 13.61-10.09 24.89-15.06 1.06-2.42 2.1-4.84 2.95-7.27 0 0 5.26-14.67 7.29-22.61-26.85 6.97-72.8 20.47-106.99 12.91-27.01-5.96-97.4-44.95-80.38-72.36 1.14-1.83 2.59-3.1 4.26-4.14l1.05-.4c6.73-3.59 18.58-5.69 31.05-5.59l4.53.13c7.25.4 26.23 3.13 32.67 5.22 18.82 6.13 35.64 2.45 35.64 2.45l-.25-.17c13.38-1.57 27.5-6.27 42.08-13.73 15.66-7.98 36.97-21.16 42.4-27.67 9.78-11.78-5.21-39.4-10.8-56.41-.27-1-.61-2.05-.94-3.09l-.39-1.41-.06.04c-.79-2.39-1.76-4.89-2.81-7.45-.95 1.2-1.8 2.36-2.43 3.44-5.35 9.03-8.24 16.93-11 13.3-2.77-3.64-2.9-18.05 2.36-31.66.54-1.4 1.2-2.73 1.91-4.06-6.06-11.12-13.42-22.77-21.18-33.92-6.03 5.72-12.13 12.17-15.09 17.31-6.89 11.83-10.56 22.21-14.08 17.43-3.56-4.74-3.65-23.89 3.1-41.86 2.2-5.87 5.57-11.18 9.09-15.82-5.35-6.76-10.57-13.01-15.34-18.31-2.14-2.37-4.66-5.02-7.34-7.8-7.36 7.62-16.68 18.03-20.45 25.58-6.56 13.19-9.94 24.43-13.67 19.64-3.72-4.82-4.45-25.07 1.76-44.65 2.55-8.02 6.95-15.34 11.3-21.3-7.98-7.6-16.65-15.65-25.55-23.79-5.4 7.18-10.72 15.06-13.16 21.1-5.85 14.26-8.62 26.35-12.58 21.72-3.89-4.67-5.6-25.71-.35-46.68 1.29-5.17 3.26-10.14 5.51-14.74-8.82-7.89-17.35-15.45-25.18-22.31-2.3 5.01-4.22 9.75-5.28 13.66-4.6 16.98-6.32 31-10.84 26.71-4.53-4.2-8.38-26.82-5.07-50.86.31-2.3.76-4.59 1.27-6.88l-2.21-1.9c-5.11-4.43-10.68-9.77-16.44-15.64-1.43 4.52-2.54 8.74-3.13 12.25-2.91 17.7-3.36 31.85-7.99 28.47-4.62-3.32-10.15-25.15-9.04-49.57.17-3.84.64-7.72 1.27-11.52-6.76-7.62-13.45-15.51-19.75-23.18-3.65 9.38-6.95 19.1-8.23 26.11-3.34 18.53-4.03 33.4-8.76 29.75-4.33-3.29-9.08-23.12-8.56-46.19-4.71-3.45-10.82-19.53-11.02-37.76-.09-6.2 1.01-12.55 2.51-18.29-3.05-4.31-8.4-7.29-12.14-12.57-19.3-27.05-11.43-59.27 30.28-66.44 12.78-39.46 45.17-58.61 94.87-59.05 6.68-.07 13.64 2.27 20.18 1.86 7.38-.5 13.46-3.5 20.2-3.71 36.22-1.09 55.22 10.43 82.74 18.48 20.55 5.96 41.74 7.89 54.52 12.9 19.57 7.68 28.87 28.77 44.4 38.76 5.78 3.71 16.69 5.46 26.25 11.06 8.07 4.75 15.05 13.39 22.2 16.6 6.24 2.85 16.65 2.28 24.22 5.55 12.67 5.51 26.68 17.4 42.4 25.86 32.91 17.63 59.7 30.68 94.87 46.11 16.8 7.38 34.58 24.72 44.41 25.84 11.65 1.35 25.22-8.4 34.31-7.37 18.52-22.06 24.98-52.89 24.2-92.52 1.1-.11.29-9.83.29-9.83s6.47-85.09-126.17-131.03c-41.25-14.28-117.07-51.81-173.39-80.72 218.91 6.81 416.91 96.33 564.01 238.52-44.49-11.55-91.92-41.79-121.13-44.56-79.65-7.55-93.92 27.92-30.29 33.77 24.03 2.21 59.49 4.92 87.8 18.38 49.4 23.51 100.3 46.22 127.3 60.84 4.41 5.31 8.63 10.78 12.92 16.2-6.55-.08-18.12-1.77-36.09-5.44-42.4-8.65-87.56-37.47-122.51-43.97-77.25-14.32-122.78-.55-82.01 16.35 59.21 24.57 254.55 30.7 274.96 175.91 20.42 145.23 6.13 210.72-4.09 247.53-4.89 17.65-15.85 43.7-25.98 66.09-2.85 15.8-6.61 29.2-9.88 38.76-1.84 4.31-3.67 9.85-5.48 16.85 0 0-2.55 17.91 5.61 35.28 7.23 15.43 32.05 48.86 33.73 81.2.03 1.96.11 3.92.08 5.88-.1 2.19-.29 4.35-.63 6.51l-.18 1.91c-3.19 18.14-13.58 30.77-27.69 40.18-9.09 6.04-21.46 7.95-28.26 16.59 5.42 17.09 22.71 23.17 29.91 37.14 4.5 12.39.83 25.42-6.01 37.26-13.17 14.79-39.04 27.62-62.26 36.33-29.07 10.92-58.62 19.54-78.59 35.23-21.11 11.25-35.29 33.01-22.34 61.76 3.37 7.48 4.87 15 4.77 22.16l-.09 2.09c-.03 1.46-.23 2.77-.41 4.12-.16 1.04-.33 2.07-.56 3.09l-.47 1.79-.56 2.02c-5.32 17.95-33.54 23.01-43.6 23.9-22.79 2.05-37.52 8.24-49.63 12.08 9.74-5.08 19.54-11.85 32.01-16.88 7.9-3.22 19.23-5.15 28.78-8.33l.07.01s17.62-3.57 22.46-15.85c4.85-12.27 2.04-23.01 0-29.9l-.74-1.99c-1.76-5.39-3.73-10.57-4.14-15.93-1.65-21.14 11.3-32.16 18.17-49.84 12.39-11.79 30.03-24 54.5-35.05 21.98-9.96 48.29-15.98 64.59-25.84 9.45-5.71 26.64-19.51 26.25-29.55-.3-7.68-14.47-18.17-20.19-25.82-4.07-5.45-6.11-12.68-9.75-17.83-3.19-5.02-7.26-8.26-11.96-8.26-6.12 0-20.08-2.37-10.89-3.06 9.18-.68 33.01-11.93 33.01-11.93l-.02-.03c32.2-13.33 53.84-38.06 42-73.32-9.91-29.53-32.71-54.25-34.31-86.74-1.7-34.56 14.12-63.03 16.14-90.44 3.42-46.12-3.19-77.9-12.1-112.58-4.18-16.21-6.4-32.18-10.09-47.96-15.72-67.21-56.27-96.32-111.03-127.36-23.74-13.46-49.22-38.28-74.69-46.13-4.09-1.26-10.41.66-14.14 0-23.46-4.25-44.57-15.89-68.63-20.3-22.66-4.17-46.42-2.18-73.31-8.99-13.65-4.88-31.13-12.18-41.34-16.53-15.79-7.19-31.26-14.69-46.7-22.26l-51.1-29.1s-28.58-16.57 3.07-4.31c25.46 9.88 112.97 53.51 76.31 27.89-25.28-12.72-38.99-30.79-61.35-46.2 0 0-75.23-37.37-86.52-47.81-12.4-11.48-27.56-5.13-37.52-16.37-11.69-13.22-26.02-21.13-36.24-24.55-10.2-3.43-21.77-25.92-37.43-37.5-15.66-11.59-49.68-8.18-79.64-21.14-29.94-12.95-60.97-13.12-60.97-13.12-2.98-.28-5.85-.46-8.61-.54-1.18-.02-2.28 0-3.41 0-17.52-.1-30.91 3.31-41.17 7.09-12.51 4.61-17.1 2.3-14.29.78 2.8-1.54 10.95-9.16 10.95-9.16-34.93.04-44.47 23.3-60.55 40.57 7.31 1.04 28.16-4.06 17.57 2.08-20.92 10.03-61.21 10.74-61.99 34.85-.61 18.9 8.07 14.77 8.07 14.77 14.65-25.56 59.89-28.07 92.87-27.71 61.43.73 103.01 34.49 143.27 53.58 13.05 7.86 28.3 18.19 28.3 18.19l-.09-.31c12.72 8.3 25.56 16.35 36.43 26.37 18.96 17.45 31.78 40.22 48.46 59.56 1.94 3.28 6.01 7.3 10.85 11.33 4.7 4.43 9.76 8.54 15.38 12.15l.22-.45 2.18 1.47-.39.82c40.51 23.02 78.28 48.49 110.13 79.41l.22.36c4.56 4.16 28.54 30.96 40.13 43.98 13.65 18.24 23.49 41.29 29.19 64.5 2.06 8.4.75 18.61 4.03 27.7 5.08 14.1 17.87 26.65 26.25 40.58 8.68 14.51 14.42 30.31 20.18 46.15 25.25 69.52 54.45 124.86 109 162.4 26.29 18.11 58.21 29.77 76.7 57.24-13.42-13.68-30.91-23.63-52.03-30.26-59.98-19.78-98.99-70.5-118.6-102.69-15.06-27.12-26.7-57.34-35.25-90.38-2.85 40.73-12.88 72.51-26.25 103.36-11.89 27.42-22.4 56.41-44.41 73.8 0 0-.85-.05-4.26 2.02-3.4 2.02 56.74 3.53 56.74 3.53 10.53-.38 21.23-1.88 32.09-3.3 2.03.22 4.53.11 7.59-.44 33.06-5.84 67.43 6.49 88.83 22.1 11.11 8.1 30.43 14.59 46.46 18.98.27.7 1.83 1.48 5.83 2.26 0 0 24.5 7.65 50.53 14.82 17.63 4.84 30.48 8.54 39.39 12.95 5.17 3.29 10.09 7.25 13.9 11.99 7.63 9.42 7.77 20.74 14.14 36.9 6.33 16.1 16.01 28.63 16.14 42.45.46 45.3-42.37 81.38-88.81 57.23 45.72 11.8 78.15-10.54 72.67-53.55-6.76-53.12-86.66-92.5-135.25-112.57-19.26-7.94-41.82-17.98-64.59-20.29-32.85-3.33-62.6 3.7-90.84 1.86-36.22-2.4-60.3-21.58-90.84-24.01-26.24-2.1-22.68 15.68-45.45 17.71-4.72 2.68-19.04 0-33.28.73-39.38-10.42-64.7 7.62-96.88 22.16-23.21 10.51-47.98 20.06-72.68 22.15-62 5.27-99.7-3.37-150.38 2.01-14.29 1.53-43.95 3.33-58.03 8.62-43.84 16.43-77.41 10.48-125.04 11.15-34.65.51-66.8 2.33-88.43-1.46-5.9-1.07-11.87-2.6-18.18-3.7-46.42-8.13-117.12-12.34-115.05-53.52 3.46 2.37 2.5 8.77 8.07 9.23-.2-7.58-.39-15.14 2.01-20.32-26.99.7-42.91 19.37-42.38 40.6.9 36.12 58.9 51.22 98.91 60.92 40.1 9.7 81.75 21.05 111.03 25.84-70.13-10.33-144.31-16.97-197.84-42.47-.75 2.77-1.24 5.45-1.55 8.02-4.24 19.49-13.48 49.4-19.98 78.46-7.48 33.4 4.07 92.05 4.07 92.05l.29-.34c4.83 29.8 10.98 43.09 16.94 60.9 12.69 38.01 53.68 49.94 82.38 53.55-24.19-17.13-39.65-38.36-49.44-66.79-1.21-10.09-2.15-19.55-2.85-27.9 21.73 67.74 82.33 93.09 82.33 93.09l19.4 20.96-.24-.95c33.45 32.42 77.66 57.54 133.84 59.13 28.31.79 62.52-6.68 62.43-34.49-.05-15.73-12.32-29.09-29.06-36.46 4.92-.97 9.43-.29 13.51 1.4l17.4 19.5c5.74 14.26 5.24 32.26-4.46 43.12 25.6 21.93 65.46-2.67 62.56-31.76 7.49 6.33 12.06 18.3 6.91 27.78 34.44 20.28 53.72-28.88 88.39-17.4-3.27 9.84-19.95 7.84-25.04 16.05 45.31 6.5 85.06-9.46 130.49-5.85 2.85-2.48 5.94-4.94 9.21-7.4-84.98-9.42-15.93-9.37-15.93-9.37 10.88 1 37.03 2.83 47.19 1.01 16.65-3 27.39 1.06 42.09 6.82.36-.64 1.83-.59 2.72 1.08 7.62 3 16.41 6.34 27.56 9.36 4.32.61 8.66 1.72 12.88 3.09l1.82.38.25.29c5.83 2.03 11.31 4.46 16.01 6.75 42.83 20.61 78.34 69.18 114.92 94.66 60.61 42.19 118-9.93 160.2-43.76l-.27-.4c10.58-7.23 24.53-16.15 39.73-25.48 39.71-17.3 92.08-32.44 120.05-60.13 22.38-22.15 29.99-50.67 39.62-80.27 8.98-27.62 26.42-52.03 36.22-83.01 1.89 1.58 3.01 3.97 3.64 6.83-.27 2.65-.7 5.44.09 7.16l.53-.48c-.11 5.41-1.3 11.74-3.15 18.42-8.32 16.97-22.86 36.29-21.07 51.41 0 0 51.58-26.7 110.11-53.23 20.15-9.14 38.61-24.2 54.71-41.42l4.7.11c-.56-1.21-.5-2.95-.33-4.78 28.44-31.94 48.61-69.98 55.62-91.97 1.45-4.52 3.08-9.09 4.84-13.64l.01-.06c2.21-5.73 4.59-11.4 7.04-16.85l.05.07c1.04-1.85 1.69-3.67 2.39-5.51 8.44-18.32 16.73-33.17 19.05-37.24 9.93-12.38 17.35-29.34 26.56-40.46-.53 6.85-.88 13.75-1.56 20.55zm-826.19 277.09c87.27-80.81 98.01-168.37 104.71-193.66 6.6-25.12 9.82-16.62 9.82-16.62 1.21 85.58-66.47 193.97-127.36 229.62-60 35.19-215.11 29.07-251.54 31.9-35.85 2.74-53.77-42.93-53.77-42.93-.46-9.67 7.43 1.42 7.43 1.42 23.42 42.28 44.01 34.55 44.01 34.55 74.22-21.72 87.45-130.94 90.54-156.26 3.07-25.11 9.41-8.76 9.41-8.76 7.21 62.85-38.53 139.45-48.15 149.3-9.61 9.76-.43 15.3 30.23 6.7 92.32-25.96 100.96-174.08 106.52-192.04 5.57-17.89 9.03-.68 9.03-.68-12.48 136.19-64.16 169.77-77.93 188.5-5.72 7.77 40.96 8.94 61.5-4.45 116.01-75.08 102.99-218.89 113.43-198.36 10.58 20.95-29.19 151.09-85.08 195.37-11.18 8.84 38.79-6.6 57.2-23.6zm214.59 112.44c23.17-14 34.21-17.55 34.21-17.55s-16.18-4.55-23.54-16.71c-7.37-12.16-16.19-21.52-41.94-17.7-27.04 4.02-31.99-.22-45.6-2.44 0 0 4.76 13.86 17.65 20.87 12.87 7 28.05 52.37 59.22 33.53zm2.05 33.45c8.47 2.44 35.81-1.73 18.17 1.85-17.72 4.96-28.72-.09-40.36-7.4-26.76-16.75-48.56-55.22-76.72-71.95-12.22-7.31-24.17-5.63-34.33-18.48 6.58-13.17 13.26-5.42 22.22-7.38 19.86-4.32 38.16-12.04 56.52-23.96 20.33-13.25 42.35-37.56 72.67-35.09 9.67.77 27.24 10.15 34.32 14.77 8.84 5.77 29.83 19.54 24.22 40.6-2.49 9.33-13.59 10.83-20.2 18.46-9.15 10.61-8.8 21.03-16.13 33.21 15.98-3.22 25.13-12.71 42.37-14.77-27.15 24.39-58.44 45-96.88 59.07 2.88 1.64 4.72 8.35 14.13 11.07zm-644.2-110.5c-2.19 16.18-17.4 30.55-44.41 22.16 0 0-34.92-7.98-44.43-69.84 0 0-1.66-31.21 8.1-24.31-8.22 37.5 27.37 54.49 35.53 58.3 11.48 5.13 20.97 3.4 21.69-6.37.79-10.54-11.24-15.2-14.84-26.07 12.77 7.22 41.33 24.13 38.36 46.13zm668.31-133.09c27.34 4.37 78.51 23.3 99.04 36.15 22.28 13.93 38.84 67.36 16.13 96.94-10.17 13.24-34.52 30.03-40.38 31.38-6.68-3.88 4.2-7.41 6.05-9.22 7.7-7.6 24.88-21.51 30.28-33.22 11.03-23.95 7.65-60.6-12.12-73.85-13.32-8.9-78.47-33.25-106.97-33.21-80.17.11-88.31 88.29-137.27 118.12.87-8.43 7.02-26.13 14.02-35.28 27.53-36 53.83-110.21 131.22-97.81" fill-rule="evenodd" fill="#403c3d"/>
     <path d="m2433.3 2370.6c.44-4.18 2.32-8.2 3.64-12.03.27 19.49 1.09 47.95 21.49 59.93 3.2 1.86 6.38 2.84 9.52 2.84 8.01 0 13.14-5.65 16.36-12.02-.35 15.85 1.93 31.07 12.45 38.27 5.18 3.59 10 5.32 14.61 5.32 13.21 0 18.54-13.65 21.4-20.98.47-1.15.86-2.18 1.27-3.11 5.43-12.42 19.9-37.76 26.67-43.33 2.68 2.13 6.03 4.9 7.08 6.42-.37.5-.99 1.17-1.78 2.1-42.06 48.68-29.05 81.43-10.7 100.35 1.31 1.51 4.77 4.85 9.87 4.85 6.26 0 11.15-4.56 14.53-13.49 5.33-14.1 26.51-41.61 30.55-44.43l.99-.49c2.07-1.05 4.66-2.36 6.14-2.36l1.2.74c1.32 1.41 2.02 2.65 2.41 3.58-8.82 10.66-39.16 50.51-27.93 82.65 1.66 4.78 6.74 19.34 18.65 19.34 10.99 0 18.37-13.19 20.89-18.44 6.44-8.21 23.48-28.51 32.54-33.85 2.24-1.27 4.78-1.95 7.56-1.95 4.48 0 8.36 1.68 10.27 2.81-10.65 8.04-31.32 39.91-24.68 67.59 2.94 12.3 13.27 17.81 22.2 17.81 4.37 0 8.25-1.27 10.93-3.61 1.01-.87 3.11-3.14 5.94-6.27 7.87-8.61 26.27-28.86 37.27-32.77 2.14-.75 4.09-1.15 5.87-1.15 4.13 0 6.86 2.09 9.5 4.82-.73.56-1.66 1.22-2.86 2.02-4.97 3.36-29.76 28.79-19.55 60.6 3.72 11.63 12.01 12.88 15.4 12.88 7.95 0 15.18-5.84 18.19-9.31 5.35-6.09 26.76-24.07 32.16-24.45 4.01.71 2.25 2.71 8.31 10.37 5 11.5-10.48 12.08-25.14 16.79-8.01 2.57-25.83 21.87-41.9 14.16-16.06-7.69-172.23-113.68-103.34-29.72 28.99 35.32 66.68 50.35 63.89 59.45-4.26 13.83-48.2 14.69-60.75 23.8-6.53 4.73-12.16-5.39-16.07-14.7-39.01-152.94-175.78-233.82-188.79-242.48 0 0-35.95-22.04-26.53-21.68 9.43.34 27.02 3.64 30.27-26.87" fill="#5d802f"/>
     <path d="m2747.2 2810.1c-62.51-19.99-119.08-11.38-119.08-11.38-22.18.52-23.98 27.54-27.27 49.98-3.36 23 22.07-23.5 53.19-30.48 29.63-6.74 40.8-4.57 37.8 18.39-3.21 24.06 27.8-3.65 46.52-7.14 0 0 2.3-1.48 12-.96 9.68.53 27.48-6.91-3.16-18.41" fill="#5d802f"/>
    </g>
   </g>
  </g>
 </g>
</svg>
