<?xml version="1.0" encoding="UTF-8" standalone="no"?>
<!-- Created with Inkscape (http://www.inkscape.org/) -->

<svg
   xmlns:svg="http://www.w3.org/2000/svg"
   xmlns="http://www.w3.org/2000/svg"
   viewBox="0 0 600 950"
   version="1.1"
   width="600"
   height="950">
  <g
      transform="translate(-555.1899,-182.7993)">
    <path
      fill="#fff"
      d="m 555.19,182.7993 0,850.0038 99.99801,0 0,-49.99816 -0.0572,0 0.0572,-0.0357 49.999,0 0,-49.99812 49.999,0 0,-49.99812 49.99901,0 0,99.99624 49.999,0 0.73359,0 -0.73359,100.03196 49.999,0 0,49.9981 99.99798,0 0,-49.9981 49.999,0 0,-99.99626 -49.999,0 -0.7336,-0.0357 0.7336,-99.99624 -49.99897,0 0,-49.99812 200.00787,0 0,-49.99812 0,-49.99812 -49.999,0 0,0.069 -0.012,-0.069 0,-49.99812 -49.999,0 0,-49.99811 -49.999,0 0,-49.99812 -49.99897,0 0,-49.99812 -49.99901,0 0,-49.99812 -49.999,0 0,-49.99812 -49.999,0 0,-49.99812 -49.99901,0 0,-49.99812 -49.999,0 0,-49.99812 -49.999,0 0,-49.99812 -49.99901,0 0,-49.99812 -49.999,0 z" />
    <path
      fill="#333"
      d="m 50,99.996094 0,699.974606 49.998047,0 0,-49.99804 50.000003,0 0,-49.99805 49.99804,0 0,-50 50,0 0,50 49.99805,0 0,99.99609 49.99805,0 0,100.03125 99.99804,0 0,-99.99609 -49.99804,0 0,-100.03125 -50,0 0,-99.99805 199.99609,0 0,-49.99804 -49.99805,0 0,-49.99805 -50,0 0,-49.99805 -49.99804,0 0,-49.99804 -50,0 0,-49.99805 -49.99805,0 0,-49.99805 -49.99805,0 0,-49.99805 -50,0 0,-49.99804 -49.99804,0 0,-49.99805 -50.000003,0 0,-49.998046 z"
      transform="translate(555.1899,182.7993)" />
  </g>
</svg>
